Coordinates
version=1
nRows=27
nColumns=12
inDegrees=yes

Units are S.I. units (second, meters, Newtons, ...)
Angles are in degrees

endheader
time	SC_y	SC_z	SC_x	AC_y	AC_z	AC_x	GH_y	GH_z	GH_yy	EL_x	PS_y
       0.0              -43.09          24.85          42.05          67.05         -14.99         -19.43         -178.2          30.45         -9.169          78.84          35.63
 0.0002414              -43.09          24.85          42.05          67.05         -14.99         -19.43         -178.1          30.44         -9.169          78.84          35.63
 0.0004827               -43.1          24.85          42.05          67.05         -14.99         -19.43         -178.1          30.44          -9.17          78.84          35.63
 0.0007241               -43.1          24.85          42.05          67.05         -14.99         -19.43         -178.1          30.43          -9.17          78.84          35.63
 0.0009654               -43.1          24.85          42.05          67.05         -14.99         -19.43         -178.1          30.42         -9.171          78.84          35.64
  0.001207               -43.1          24.85          42.05          67.04         -14.98         -19.42         -178.0          30.41         -9.172          78.83          35.64
  0.001448               -43.1          24.85          42.04          67.04         -14.98         -19.42         -178.0          30.41         -9.172          78.83          35.64
  0.001689              -43.11          24.85          42.04          67.04         -14.98         -19.42         -177.9           30.4         -9.173          78.83          35.65
  0.001931              -43.11          24.86          42.04          67.04         -14.98         -19.42         -177.9          30.39         -9.174          78.83          35.65
  0.002172              -43.11          24.86          42.04          67.03         -14.97         -19.42         -177.9          30.38         -9.175          78.82          35.65
  0.002414              -43.11          24.86          42.04          67.03         -14.97         -19.41         -177.8          30.37         -9.176          78.82          35.66
  0.002655              -43.12          24.86          42.04          67.03         -14.97         -19.41         -177.8          30.36         -9.177          78.82          35.66
  0.002896              -43.12          24.86          42.03          67.02         -14.96         -19.41         -177.7          30.34         -9.178          78.81          35.67
  0.003138              -43.12          24.86          42.03          67.02         -14.96          -19.4         -177.6          30.33         -9.179          78.81          35.67
  0.003379              -43.13          24.87          42.03          67.02         -14.95          -19.4         -177.6          30.32          -9.18          78.81          35.68
   0.00362              -43.13          24.87          42.03          67.01         -14.95          -19.4         -177.5           30.3         -9.182           78.8          35.69
  0.003862              -43.13          24.87          42.03          67.01         -14.95         -19.39         -177.4          30.28         -9.183           78.8          35.69
  0.004103              -43.14          24.87          42.02           67.0         -14.94         -19.39         -177.3          30.27         -9.185          78.79           35.7
  0.004344              -43.14          24.88          42.02           67.0         -14.93         -19.38         -177.3          30.24         -9.186          78.79          35.71
  0.004586              -43.15          24.88          42.02          66.99         -14.93         -19.38         -177.2          30.22         -9.188          78.78          35.72
  0.004827              -43.16          24.88          42.01          66.98         -14.92         -19.37         -177.0           30.2          -9.19          78.77          35.73
  0.005068              -43.16          24.89          42.01          66.97         -14.91         -19.37         -176.9          30.17         -9.193          78.76          35.74
   0.00531              -43.17          24.89           42.0          66.97         -14.91         -19.36         -176.8          30.14         -9.195          78.76          35.75
  0.005551              -43.18           24.9           42.0          66.96          -14.9         -19.35         -176.6          30.11         -9.198          78.75          35.77
  0.005792              -43.19           24.9          41.99          66.95         -14.89         -19.34         -176.5          30.07         -9.201          78.74          35.78
  0.006034               -43.2          24.91          41.99          66.94         -14.87         -19.33         -176.3          30.03         -9.205          78.73           35.8
  0.006275              -43.21          24.91          41.98          66.92         -14.86         -19.32         -176.1          29.99         -9.209          78.71          35.82
